<svg xmlns="http://www.w3.org/2000/svg" xmlns:xlink="http://www.w3.org/1999/xlink" viewBox="0 0 95 70">
    <defs>
        <style>.cls-8{fill:url(#GradientFill_2);}.cls-9{fill:url(#GradientFill_3);}</style>
        <linearGradient id="GradientFill_2" x1="72.35" y1="29.51" x2="85.31" y2="5.5" gradientUnits="userSpaceOnUse">
            <stop offset="0"/>
            <stop offset="0.58"/>
            <stop offset="1" stop-color="#ffd529"/>
        </linearGradient>
        <radialGradient id="GradientFill_3" cx="30.31" cy="26.46" r="31.86" gradientTransform="translate(0.02 3.82) scale(0.78 0.63)" gradientUnits="userSpaceOnUse">
            <stop offset="0" stop-color="#ffd529"/>
            <stop offset="0.4"/>
            <stop offset="1"/>
        </radialGradient>
    </defs>
    <path fill="#000" d="M32,67.43H48.56a4.5,4.5,0,0,1-.3-1.6,4.33,4.33,0,0,1,.2-1.31H23.8A4.32,4.32,0,0,1,24,65.83a4.5,4.5,0,0,1-.29,1.6Z"/>
    <path fill="#000" d="M94.74,64.52H66.42a4.33,4.33,0,0,1,.2,1.31,4.5,4.5,0,0,1-.3,1.6h22a1.46,1.46,0,0,1,1,2.49l2.48-2.49Z"/>
    <path fill="#000" d="M24.22,45.39V56.56h2.92V48a5.43,5.43,0,0,0-1.27-1.51A5.78,5.78,0,0,0,24.22,45.39Z"/>
    <path fill="#ffcc00" d="M20.35,67.43A1.46,1.46,0,1,0,18.89,66,1.46,1.46,0,0,0,20.35,67.43Z"/>
    <path fill="#ffcc00" d="M16.17,67.43A1.46,1.46,0,1,0,14.71,66,1.46,1.46,0,0,0,16.17,67.43Z"/>
    <path fill="#ffcc00" d="M63,67.43A1.46,1.46,0,1,0,61.52,66,1.46,1.46,0,0,0,63,67.43Z"/>
    <path fill="#ffcc00" d="M58.8,67.43A1.46,1.46,0,1,0,57.34,66,1.45,1.45,0,0,0,58.8,67.43Z"/>
    <path fill="#000" d="M4.26,58.51a4.47,4.47,0,0,0,.31,8.92h8.26a4.29,4.29,0,0,1-.3-1.6,4.79,4.79,0,0,1,.19-1.32H4.57a1.55,1.55,0,1,1,0-3.09H20a1,1,0,0,0,1.11-1.14V53.79a7.34,7.34,0,0,0-1.64,1.13,5.6,5.6,0,0,0-1.28,1.51V58.5H4.26Z"/>
    <path fill="#000" d="M59.78,58.5H56.52V55.73a4.87,4.87,0,0,0-1.86,1.09,8.24,8.24,0,0,0-1,1.12v3.63a4.47,4.47,0,0,1-2.17,3.83,4,4,0,0,1-.84.39,4.43,4.43,0,0,0,1.46.24,3.81,3.81,0,0,0,.59,0,4.45,4.45,0,0,0,3.87-4.42v-.15H94.74V52.5a1.62,1.62,0,0,0-1.13.38,11.26,11.26,0,0,0-.74,1l-2.63.4a3.35,3.35,0,0,0-2.33,1.53,4.74,4.74,0,0,0-.8,2.73H65.86V53.79a8.15,8.15,0,0,0-1.65,1.15,5.45,5.45,0,0,0-1.29,1.49V58.5H59.78Zm30,0A1.91,1.91,0,0,1,90.34,57a2.62,2.62,0,0,1,1.6-.37V58.5Z"/>
    <path fill="#000" d="M50.08,60.49V55.31a2,2,0,0,0-.44-1.2,1.35,1.35,0,0,0-1.08-.61H41.17a2.23,2.23,0,0,0-2,.83V45.39a6.73,6.73,0,0,0-1.76,1,6,6,0,0,0-1.49,1.32V58.5H33.14V45.39A6,6,0,0,0,30.23,48V58.5h-6v2.61c0,.11,0,.21,0,.31H49.3q.78,0,.78-.93ZM42,58.5H39.14v-1a1,1,0,0,1,1-1H46.2a1,1,0,0,1,1,1v1H42Z"/>
    <path fill="#000" d="M13.76,48.7v4.9h1V47.79a2.23,2.23,0,0,0-.57.39A1.76,1.76,0,0,0,13.76,48.7Z"/>
    <path fill="#000" d="M15.77,53.38a1.58,1.58,0,0,1-1,1.46,1.7,1.7,0,0,0,.51.08h.2a1.55,1.55,0,0,0,1.34-1.53v-2a1.67,1.67,0,0,0-.65.38,3.1,3.1,0,0,0-.36.37Z"/>
    <path fill="#000" d="M9.17,52.32V50.93l-.05,0a2.26,2.26,0,0,0-.44.31,1.88,1.88,0,0,0-.37.45v.61H3.13A.18.18,0,0,1,3,52.14V48.7a1.72,1.72,0,0,0-.45-.52,2.23,2.23,0,0,0-.57-.39v5.14c0,.27.13.4.38.4H12.44c.25,0,.38-.13.38-.4V50.51l-.06,0a2.2,2.2,0,0,0-.51.36,1.89,1.89,0,0,0-.44.52v.72a.18.18,0,0,1-.17.18h-.75V50.93l-.05,0a2,2,0,0,0-.44.31,1.66,1.66,0,0,0-.37.45v.61Z"/>
    <path fill="#000" d="M66.06,14.23l2.56-4.42H59.79l-1.36,2.37-3.46,6a27.91,27.91,0,0,1,.68,3.18,38.06,38.06,0,0,1,.1,10.76l5.62-9.75,1.7-2.95Z"/>
    <path fill="#000" d="M69.85,40.31c2.49-8.65,2.15-18.74-.21-28.2l-6.2,10.76A51.32,51.32,0,0,1,61.8,40.31Z"/>
    <path class="cls-8" d="M73.51,34l11.9-20.62,5.45,3.14-2.31-8.6L87.16,2.67,73.35,6.38l5.44,3.14L73.34,19c.22,1.62.39,3.25.49,4.87A54,54,0,0,1,73.51,34Z"/>
    <path class="cls-9" d="M13,23.68C12,16.25,18.37,9.54,24.84,8.94c9.51-1.9,18.69,4.7,20.47,14.47,1.17,6.41-.18,12.83-3.11,16.9H51c2.38-4.56,3.43-12.21,2.28-19-4.88-28.67-47.1-28-49-.75-.66,9.55,5.66,19,17.76,19.7,9.66.55,18.26-6.23,16.64-15.36a10.92,10.92,0,0,0-12.66-8.86,11.54,11.54,0,0,0-2,.54l-.53.22-.09-.15L21.13,14V26.74h1.93a2.87,2.87,0,0,1,1.55-2.67,2.12,2.12,0,0,0,1.35-3c2.43-1.27,6.84.49,6.84,4.33C32.8,36.13,14.64,35.87,13,23.68Z"/>
</svg>