<svg id="Layer_1" data-name="Layer 1" xmlns="http://www.w3.org/2000/svg" xmlns:xlink="http://www.w3.org/1999/xlink" viewBox="0 0 107 50"><defs><style>.cls-1,.cls-2,.cls-3{fill-rule:evenodd;}.cls-2{fill:url(#GradientFill_2);}.cls-3{fill:url(#GradientFill_3);}</style><linearGradient id="GradientFill_2" x1="84.1" y1="36.57" x2="100.15" y2="6.82" gradientUnits="userSpaceOnUse"><stop offset="0"/><stop offset="0.58"/><stop offset="1" stop-color="#ffd529"/></linearGradient><radialGradient id="GradientFill_3" cx="23.95" cy="25.5" r="30.7" gradientTransform="translate(0 4.74) scale(1 0.81)" gradientUnits="userSpaceOnUse"><stop offset="0" stop-color="#ffd529"/><stop offset="0.4"/><stop offset="1"/></radialGradient></defs><title>logo-mobile</title><path class="cls-1" d="M76.37,17.64l3.15-5.48H68.62l-1.69,2.93-4.28,7.44a31.91,31.91,0,0,1,.85,3.94,47.28,47.28,0,0,1,.12,13.33l6.95-12.08,2.1-3.65Z"/><path class="cls-1" d="M81.05,50c3.08-10.72,2.66-23.23-.26-34.95L73.12,28.35A64,64,0,0,1,71.1,50Z"/><path class="cls-2" d="M85.57,42.1l14.7-25.56,6.73,3.9L104.16,9.78l-1.73-6.47L85.37,7.9l6.73,3.9L85.35,23.52c.28,2,.49,4,.61,6A67,67,0,0,1,85.57,42.1Z"/><path class="cls-3" d="M10.81,29.35c-1.23-9.22,6.62-17.53,14.62-18.27C37.17,8.73,48.52,16.91,50.72,29,52.16,37,50.49,44.92,46.88,50h10.9c2.94-5.65,4.23-15.13,2.81-23.49C54.57-9.06,2.39-8.28.06,25.54-.76,37.38,7.05,49.12,22,50c11.94.68,22.56-7.72,20.57-19a13.52,13.52,0,0,0-15.65-11,13.23,13.23,0,0,0-2.45.68q-.33.12-.66.27l-.11-.2-2.86-3.31V33.14h2.39c0-1.17.63-2.89,1.92-3.3a2.64,2.64,0,0,0,1.66-3.69c3-1.57,8.45.61,8.45,5.37C35.26,44.78,12.82,44.46,10.81,29.35Z"/></svg>