<svg xmlns="http://www.w3.org/2000/svg" xmlns:xlink="http://www.w3.org/1999/xlink">
    <symbol id="logo-rtl" viewBox="0 0 190 140">
        <defs>
            <linearGradient id="gradient_1" x1="144.6" y1="59.01" x2="170.51" y2="10.99" gradientUnits="userSpaceOnUse">
                <stop offset="0"/>
                <stop offset="0.58"/>
                <stop offset="1" stop-color="#ffd529"/>
            </linearGradient>
            <radialGradient id="gradient_2" cx="43.22" cy="23.94" r="31.86" gradientTransform="translate(-20.18 10.82) scale(1.55 1.27)" gradientUnits="userSpaceOnUse">
                <stop offset="0" stop-color="#ffd529"/>
                <stop offset="0.4"/>
                <stop offset="1"/>
            </radialGradient>
        </defs>
        <g>
            <path class="secondary" d="M63.94,135H97.28a8.86,8.86,0,0,1-.6-3.22,9.09,9.09,0,0,1,.39-2.63H47.57a9.09,9.09,0,0,1,.39,2.63,8.86,8.86,0,0,1-.6,3.22Z" transform="translate(0 0)"/>
            <path class="secondary" d="M190,129.15H133.15a9.09,9.09,0,0,1,.39,2.63,8.86,8.86,0,0,1-.6,3.22h44.11a2.93,2.93,0,0,1,2.1,5l5-5Z" transform="translate(0 0)"/>
            <path class="secondary" d="M48.41,90.77v22.41h5.86V96.07a10.57,10.57,0,0,0-2.54-3A11.81,11.81,0,0,0,48.41,90.77Z" transform="translate(0 0)"/>
            <path class="primary" d="M40.64,135a2.93,2.93,0,1,0-2.92-2.93A2.93,2.93,0,0,0,40.64,135Z" transform="translate(0 0)"/>
            <path class="primary" d="M32.25,135a2.93,2.93,0,1,0-2.92-2.93A2.93,2.93,0,0,0,32.25,135Z" transform="translate(0 0)"/>
            <path class="primary" d="M126.22,135a2.93,2.93,0,1,0-2.92-2.93A2.93,2.93,0,0,0,126.22,135Z" transform="translate(0 0)"/>
            <path class="primary" d="M117.83,135a2.93,2.93,0,1,0-2.92-2.93A2.93,2.93,0,0,0,117.83,135Z" transform="translate(0 0)"/>
            <path class="secondary" d="M8.34,117.1A9,9,0,0,0,9,135H25.53a9.07,9.07,0,0,1-.59-3.22,8.76,8.76,0,0,1,.39-2.63H9a3.11,3.11,0,0,1,0-6.21H39.9a2,2,0,0,0,2.23-2.29v-13a15,15,0,0,0-3.29,2.27,10.65,10.65,0,0,0-2.57,3v4.15H10.89Z" transform="translate(0 0)"/>
            <path class="secondary" d="M119.8,117.08h-6.53v-5.57a9.59,9.59,0,0,0-3.74,2.21,15.45,15.45,0,0,0-2.11,2.24v7.27a9,9,0,0,1-4.36,7.69,8.74,8.74,0,0,1-1.67.78,8.82,8.82,0,0,0,2.92.49,9.12,9.12,0,0,0,1.18-.07,9,9,0,0,0,7.78-8.89v-.29H190V105.05a3.25,3.25,0,0,0-2.26.75,19.8,19.8,0,0,0-1.49,1.92l-5.29.81a6.75,6.75,0,0,0-4.67,3.07,9.43,9.43,0,0,0-1.6,5.48H132v-9.45a17.2,17.2,0,0,0-3.31,2.3,10.75,10.75,0,0,0-2.6,3v4.15H119.8Zm60.31,0a3.85,3.85,0,0,1,1.06-3.1,5.35,5.35,0,0,1,3.21-.73v3.83Z" transform="translate(0 0)"/>
            <path class="secondary" d="M100.34,121.07v-10.4a3.88,3.88,0,0,0-.89-2.4A2.72,2.72,0,0,0,97.28,107H82.44c-2,0-3.35.55-4.07,1.67V90.77a14.27,14.27,0,0,0-3.54,2,11.52,11.52,0,0,0-3,2.65v21.63H66.32V90.77A12,12,0,0,0,60.47,96v21.13H48.41v5.24c0,.21,0,.41,0,.62H98.77c1,0,1.57-.62,1.57-1.87Zm-16.24-4H78.37V115a2,2,0,0,1,2-2H92.55a2,2,0,0,1,2,2v2.1H84.1Z" transform="translate(0 0)"/>
            <path class="secondary" d="M27.4,97.41v9.83h2.05V95.58a5.25,5.25,0,0,0-1.15.8A3.69,3.69,0,0,0,27.4,97.41Z" transform="translate(0 0)"/>
            <path class="secondary" d="M31.45,106.8a3.1,3.1,0,0,1-1.51,2.66,3.06,3.06,0,0,1-.58.27,3.1,3.1,0,0,0,1,.17,2.73,2.73,0,0,0,.41,0,3.1,3.1,0,0,0,2.69-3.07v-4a3.18,3.18,0,0,0-1.29.76,4.63,4.63,0,0,0-.73.75Z" transform="translate(0 0)"/>
            <path class="secondary" d="M18.19,104.68V101.9l-.1,0a4.1,4.1,0,0,0-.87.62,3.23,3.23,0,0,0-.75.89v1.23H6.07a.35.35,0,0,1-.35-.35V97.41a3.65,3.65,0,0,0-.89-1,4.87,4.87,0,0,0-1.15-.78v10.33c0,.53.25.79.76.79H24.76a.69.69,0,0,0,.77-.79v-4.86l-.12,0a4.22,4.22,0,0,0-1,.73,3.63,3.63,0,0,0-.88,1v1.45a.35.35,0,0,1-.35.35H21.64V101.9l-.1,0a3.86,3.86,0,0,0-.87.62,3.23,3.23,0,0,0-.75.89v1.23Z" transform="translate(0 0)"/>
        </g>
        <g>
            <path class="secondary" d="M132,28.45l5.11-8.84H119.48l-2.74,4.74-6.92,12a56.1,56.1,0,0,1,1.38,6.35,76.41,76.41,0,0,1,.18,21.51l11.25-19.49,3.4-5.89Z" transform="translate(0 0)"/>
            <path class="secondary" d="M139.61,80.6c5-17.29,4.29-37.47-.43-56.38L126.76,45.73A102.86,102.86,0,0,1,123.5,80.6Z" transform="translate(0 0)"/>
            <path class="gradient1" d="M146.93,67.91l23.79-41.23,10.9,6.3L177,15.78l-2.8-10.44-27.63,7.41L157.49,19,146.57,38q.69,4.88,1,9.74A107.76,107.76,0,0,1,146.93,67.91Z" transform="translate(0 0)"/>
            <path class="gradient2" d="M25.88,47.34c-2-14.86,10.72-28.27,23.67-29.47,19-3.79,37.38,9.4,41,28.94,2.34,12.81-.37,25.66-6.22,33.79h17.64c4.77-9.12,6.86-24.41,4.56-37.9-9.75-57.31-94.23-56.06-98-1.5C7.15,60.3,19.79,79.23,44,80.6,63.33,81.69,80.53,68.14,77.3,49.88A21.85,21.85,0,0,0,52,32.17a21.41,21.41,0,0,0-4,1.09c-.36.13-.71.28-1.06.43l-.18-.31L42.13,28V53.46H46c0-1.89,1-4.65,3.11-5.33a4.24,4.24,0,0,0,2.68-6c4.86-2.53,13.69,1,13.69,8.66C65.47,72.24,29.14,71.72,25.88,47.34Z" transform="translate(0 0)"/>
        </g>
    </symbol>
    <symbol id="logo-ltr" viewBox="0 0 95 70">
        <defs>
            <linearGradient id="gradient_1" x1="68.18" y1="24.6" x2="78.99" y2="4.58" gradientUnits="userSpaceOnUse">
                <stop offset="0"/>
                <stop offset="0.58"/>
                <stop offset="1" stop-color="#ffd529"/>
            </linearGradient>
            <radialGradient id="gradient_2" cx="27.49" cy="17.15" r="20.65" gradientTransform="translate(0 3.18) scale(1 0.81)" gradientUnits="userSpaceOnUse">
                <stop offset="0" stop-color="#ffd529"/>
                <stop offset="0.4"/>
                <stop offset="1"/>
            </radialGradient>
        </defs>
        <g>
            <path class="secondary" d="M19.87,61.9a3.35,3.35,0,1,1,3.23-2.5,3.34,3.34,0,0,1-3.23,2.5Zm0-8.34a5,5,0,1,0,5,5A5,5,0,0,0,19.87,53.56Z"/>
            <rect class="secondary" x="26.55" y="50.23" width="1.67" height="13.34"/>
            <path class="secondary" d="M34.89,63.57a5,5,0,0,1-1.45-9.8l1.45,1.46a3.34,3.34,0,1,0,0,6.67h.84V50.23h1.66V63.57Z"/>
            <path class="secondary" d="M47.34,62.39,46.15,61.2a3.3,3.3,0,0,1-2,.7,3.34,3.34,0,0,1-3.23-2.5h8.24v-.84a4.57,4.57,0,0,0-.07-.83,5,5,0,0,0-9.87,0,5,5,0,0,0,0,1.67,5,5,0,0,0,8.17,3Zm0-4.66H40.87a3.34,3.34,0,0,1,6.47,0Z"/>
            <path class="secondary" d="M50.78,53.56v10h1.67V55.23h.83a3.33,3.33,0,0,1,3.34,3.33v5h1.67v-5a5,5,0,0,0-5-5Z"/>
            <path class="secondary" d="M65,50.23V63.57h1.67a5,5,0,0,0,4.17-2.24A5,5,0,0,0,75,63.57h1.66V50.23H75V61.9a3.86,3.86,0,0,1-.84-.1,3.34,3.34,0,0,1-2.5-3.24V56.07H70v2.49a3.34,3.34,0,0,1-2.5,3.24,3.86,3.86,0,0,1-.84.1V50.23Z"/>
            <path class="secondary" d="M78.31,58.56a5,5,0,0,0,3.56,4.79l1.45-1.45a3.34,3.34,0,1,1,0-6.67h.83v8.34h1.67v-10h-2.5A5,5,0,0,0,78.31,58.56Z"/>
            <path class="primary" d="M71.84,68.58a.83.83,0,0,0,.83-.83.84.84,0,0,0-.83-.84.85.85,0,0,0-.84.84A.84.84,0,0,0,71.84,68.58Z"/>
            <circle class="primary" cx="69.45" cy="67.75" r="0.83"/>
            <path class="secondary" d="M62.8,68.58h4.73a2.51,2.51,0,0,1-.17-.92,2.67,2.67,0,0,1,.11-.75H30.66a2.67,2.67,0,0,1,.11.75,2.51,2.51,0,0,1-.17.92Z"/>
            <path class="primary" d="M26.18,68.58a.84.84,0,0,0,.83-.84.83.83,0,0,0-1.66,0A.84.84,0,0,0,26.18,68.58Z"/>
            <path class="secondary" d="M3.69,68.58H24.26a2.59,2.59,0,0,1-.17-.92,2.31,2.31,0,0,1,.12-.75H0l1.67,1.67L3.09,70a.93.93,0,0,1,0-1.18A.64.64,0,0,1,3.69,68.58Z"/>
            <path class="primary" d="M28.57,68.58a.85.85,0,0,0,.84-.84.84.84,0,0,0-.84-.83.83.83,0,0,0-.83.83A.84.84,0,0,0,28.57,68.58Z"/>
            <path class="secondary" d="M90,68.58a5,5,0,0,0,5-5v-10H93.33V61.9H92.5a3.33,3.33,0,0,1-3.34-3.34v-5H87.49v5a4.61,4.61,0,0,0,.07.84,5,5,0,0,0,4.94,4.17h.83A3.34,3.34,0,0,1,90,66.91H73.92a2.31,2.31,0,0,1,.11.75,2.59,2.59,0,0,1-.17.92H90Z"/>
            <path class="secondary" d="M6.67,61.89a5,5,0,0,1-4.83-3.74,5,5,0,0,1,0-2.5,5,5,0,0,1,4.83-3.74h6.67l-1.67-1.67-1.42-1.42a.93.93,0,0,1,0,1.18.67.67,0,0,1-.6.24H6.21a6.68,6.68,0,0,0-6,5,6.75,6.75,0,0,0,0,3.34,6.67,6.67,0,0,0,12.92,0,7.34,7.34,0,0,0,.16-.84,7.55,7.55,0,0,0,.05-.83,7.89,7.89,0,0,0-.05-.84H6.67L5,57.73h6.59c0,.14-.05.28-.09.42A5,5,0,0,1,6.67,61.89Z"/>
            <path class="secondary" d="M79.76,51.31v1h.34v-1a1.11,1.11,0,0,1,0-.17.7.7,0,0,1,.66-.51v-.34A1,1,0,0,0,79.76,51.31Z"/>
            <path class="secondary" d="M88.29,52.34h1a1,1,0,0,0,1-.85c0-.06,0-.12,0-.18s0-.11,0-.17H88.65a.7.7,0,0,1,.67-.51h1v-.34h-1a1,1,0,0,0-1,1,1.1,1.1,0,0,0,0,.18H90a.7.7,0,0,1-.66.51h-1Z"/>
            <path class="secondary" d="M83.41,52a.34.34,0,0,0,.34.34h.86V52h-.78a.09.09,0,0,1-.08-.09v-.6a.68.68,0,0,1,.68-.68H85v1.71h.34V50.29h-.86a1,1,0,0,0-1,1Z"/>
            <path class="secondary" d="M93.11,52a.34.34,0,0,0,.34.34h.87V52h-.78a.09.09,0,0,1-.09-.09v-.6a.69.69,0,0,1,.69-.68h.52v1.71H95V50.29h-.86a1,1,0,0,0-1,1Z"/>
            <path class="secondary" d="M79.76,51.31v1h.34v-1a1.11,1.11,0,0,1,0-.17.7.7,0,0,1,.66-.51v-.34A1,1,0,0,0,79.76,51.31Z"/>
            <path class="secondary" d="M88.29,52.34h1a1,1,0,0,0,1-.85c0-.06,0-.12,0-.18s0-.11,0-.17H88.65a.7.7,0,0,1,.67-.51h1v-.34h-1a1,1,0,0,0-1,1,1.1,1.1,0,0,0,0,.18H90a.7.7,0,0,1-.66.51h-1Z"/>
            <path class="secondary" d="M83.41,52a.34.34,0,0,0,.34.34h.86V52h-.78a.09.09,0,0,1-.08-.09v-.6a.68.68,0,0,1,.68-.68H85v1.71h.34V50.29h-.86a1,1,0,0,0-1,1Z"/>
            <path class="secondary" d="M93.11,52a.34.34,0,0,0,.34.34h.87V52h-.78a.09.09,0,0,1-.09-.09v-.6a.69.69,0,0,1,.69-.68h.52v1.71H95V50.29h-.86a1,1,0,0,0-1,1Z"/>
        </g>
        <g>
            <path class="secondary" d="M65.88,14.12l2.53-4.39H59.65l-1.36,2.35-3.43,6a27.84,27.84,0,0,1,.68,3.15,37.86,37.86,0,0,1,.09,10.68l5.59-9.68,1.68-2.92Z"/>
            <path class="secondary" d="M69.64,40c2.48-8.58,2.14-18.6-.21-28L63.27,22.7A51,51,0,0,1,61.65,40Z"/>
            <path class="gradient1" d="M73.28,33.71,85.09,13.24l5.41,3.13L88.21,7.83,86.83,2.65,73.11,6.33l5.41,3.12L73.1,18.83c.23,1.62.39,3.23.49,4.84A54,54,0,0,1,73.28,33.71Z"/>
            <path class="gradient2" d="M13.19,23.5c-1-7.38,5.32-14,11.75-14.63C34.38,7,43.49,13.54,45.26,23.23,46.43,29.59,45.08,36,42.18,40h8.76c2.36-4.52,3.4-12.11,2.26-18.81C48.36-7.25,6.42-6.63,4.55,20.45,3.89,29.93,10.16,39.33,22.18,40c9.6.54,18.14-6.18,16.53-15.24A10.83,10.83,0,0,0,26.13,16a10.49,10.49,0,0,0-2,.54c-.18.06-.36.14-.53.21l-.09-.15-2.3-2.66V26.53h1.92a2.82,2.82,0,0,1,1.54-2.64,2.11,2.11,0,0,0,1.34-2.95c2.41-1.26,6.79.49,6.79,4.29C32.84,35.85,14.81,35.6,13.19,23.5Z"/>
        </g>
    </symbol>
</svg>