<svg xmlns="http://www.w3.org/2000/svg" xmlns:xlink="http://www.w3.org/1999/xlink">
    <symbol id="logo-rtl" viewBox="0 0 190 140">
        <defs>
            <linearGradient id="gradient_1" x1="144.6" y1="59.01" x2="170.51" y2="10.99" gradientUnits="userSpaceOnUse">
                <stop offset="0"/>
                <stop offset="0.58"/>
                <stop offset="1" stop-color="#ffd529"/>
            </linearGradient>
            <radialGradient id="gradient_2" cx="43.22" cy="23.94" r="31.86" gradientTransform="translate(-20.18 10.82) scale(1.55 1.27)" gradientUnits="userSpaceOnUse">
                <stop offset="0" stop-color="#ffd529"/>
                <stop offset="0.4"/>
                <stop offset="1"/>
            </radialGradient>
        </defs>
        <g>
            <path class="secondary" d="M63.94,135H97.28a8.86,8.86,0,0,1-.6-3.22,9.09,9.09,0,0,1,.39-2.63H47.57a9.09,9.09,0,0,1,.39,2.63,8.86,8.86,0,0,1-.6,3.22Z" transform="translate(0 0)"/>
            <path class="secondary" d="M190,129.15H133.15a9.09,9.09,0,0,1,.39,2.63,8.86,8.86,0,0,1-.6,3.22h44.11a2.93,2.93,0,0,1,2.1,5l5-5Z" transform="translate(0 0)"/>
            <path class="secondary" d="M48.41,90.77v22.41h5.86V96.07a10.57,10.57,0,0,0-2.54-3A11.81,11.81,0,0,0,48.41,90.77Z" transform="translate(0 0)"/>
            <path class="primary" d="M40.64,135a2.93,2.93,0,1,0-2.92-2.93A2.93,2.93,0,0,0,40.64,135Z" transform="translate(0 0)"/>
            <path class="primary" d="M32.25,135a2.93,2.93,0,1,0-2.92-2.93A2.93,2.93,0,0,0,32.25,135Z" transform="translate(0 0)"/>
            <path class="primary" d="M126.22,135a2.93,2.93,0,1,0-2.92-2.93A2.93,2.93,0,0,0,126.22,135Z" transform="translate(0 0)"/>
            <path class="primary" d="M117.83,135a2.93,2.93,0,1,0-2.92-2.93A2.93,2.93,0,0,0,117.83,135Z" transform="translate(0 0)"/>
            <path class="secondary" d="M8.34,117.1A9,9,0,0,0,9,135H25.53a9.07,9.07,0,0,1-.59-3.22,8.76,8.76,0,0,1,.39-2.63H9a3.11,3.11,0,0,1,0-6.21H39.9a2,2,0,0,0,2.23-2.29v-13a15,15,0,0,0-3.29,2.27,10.65,10.65,0,0,0-2.57,3v4.15H10.89Z" transform="translate(0 0)"/>
            <path class="secondary" d="M119.8,117.08h-6.53v-5.57a9.59,9.59,0,0,0-3.74,2.21,15.45,15.45,0,0,0-2.11,2.24v7.27a9,9,0,0,1-4.36,7.69,8.74,8.74,0,0,1-1.67.78,8.82,8.82,0,0,0,2.92.49,9.12,9.12,0,0,0,1.18-.07,9,9,0,0,0,7.78-8.89v-.29H190V105.05a3.25,3.25,0,0,0-2.26.75,19.8,19.8,0,0,0-1.49,1.92l-5.29.81a6.75,6.75,0,0,0-4.67,3.07,9.43,9.43,0,0,0-1.6,5.48H132v-9.45a17.2,17.2,0,0,0-3.31,2.3,10.75,10.75,0,0,0-2.6,3v4.15H119.8Zm60.31,0a3.85,3.85,0,0,1,1.06-3.1,5.35,5.35,0,0,1,3.21-.73v3.83Z" transform="translate(0 0)"/>
            <path class="secondary" d="M100.34,121.07v-10.4a3.88,3.88,0,0,0-.89-2.4A2.72,2.72,0,0,0,97.28,107H82.44c-2,0-3.35.55-4.07,1.67V90.77a14.27,14.27,0,0,0-3.54,2,11.52,11.52,0,0,0-3,2.65v21.63H66.32V90.77A12,12,0,0,0,60.47,96v21.13H48.41v5.24c0,.21,0,.41,0,.62H98.77c1,0,1.57-.62,1.57-1.87Zm-16.24-4H78.37V115a2,2,0,0,1,2-2H92.55a2,2,0,0,1,2,2v2.1H84.1Z" transform="translate(0 0)"/>
            <path class="secondary" d="M27.4,97.41v9.83h2.05V95.58a5.25,5.25,0,0,0-1.15.8A3.69,3.69,0,0,0,27.4,97.41Z" transform="translate(0 0)"/>
            <path class="secondary" d="M31.45,106.8a3.1,3.1,0,0,1-1.51,2.66,3.06,3.06,0,0,1-.58.27,3.1,3.1,0,0,0,1,.17,2.73,2.73,0,0,0,.41,0,3.1,3.1,0,0,0,2.69-3.07v-4a3.18,3.18,0,0,0-1.29.76,4.63,4.63,0,0,0-.73.75Z" transform="translate(0 0)"/>
            <path class="secondary" d="M18.19,104.68V101.9l-.1,0a4.1,4.1,0,0,0-.87.62,3.23,3.23,0,0,0-.75.89v1.23H6.07a.35.35,0,0,1-.35-.35V97.41a3.65,3.65,0,0,0-.89-1,4.87,4.87,0,0,0-1.15-.78v10.33c0,.53.25.79.76.79H24.76a.69.69,0,0,0,.77-.79v-4.86l-.12,0a4.22,4.22,0,0,0-1,.73,3.63,3.63,0,0,0-.88,1v1.45a.35.35,0,0,1-.35.35H21.64V101.9l-.1,0a3.86,3.86,0,0,0-.87.62,3.23,3.23,0,0,0-.75.89v1.23Z" transform="translate(0 0)"/>
        </g>
        <g>
            <path class="secondary" d="M132,28.45l5.11-8.84H119.48l-2.74,4.74-6.92,12a56.1,56.1,0,0,1,1.38,6.35,76.41,76.41,0,0,1,.18,21.51l11.25-19.49,3.4-5.89Z" transform="translate(0 0)"/>
            <path class="secondary" d="M139.61,80.6c5-17.29,4.29-37.47-.43-56.38L126.76,45.73A102.86,102.86,0,0,1,123.5,80.6Z" transform="translate(0 0)"/>
            <path class="gradient1" d="M146.93,67.91l23.79-41.23,10.9,6.3L177,15.78l-2.8-10.44-27.63,7.41L157.49,19,146.57,38q.69,4.88,1,9.74A107.76,107.76,0,0,1,146.93,67.91Z" transform="translate(0 0)"/>
            <path class="gradient2" d="M25.88,47.34c-2-14.86,10.72-28.27,23.67-29.47,19-3.79,37.38,9.4,41,28.94,2.34,12.81-.37,25.66-6.22,33.79h17.64c4.77-9.12,6.86-24.41,4.56-37.9-9.75-57.31-94.23-56.06-98-1.5C7.15,60.3,19.79,79.23,44,80.6,63.33,81.69,80.53,68.14,77.3,49.88A21.85,21.85,0,0,0,52,32.17a21.41,21.41,0,0,0-4,1.09c-.36.13-.71.28-1.06.43l-.18-.31L42.13,28V53.46H46c0-1.89,1-4.65,3.11-5.33a4.24,4.24,0,0,0,2.68-6c4.86-2.53,13.69,1,13.69,8.66C65.47,72.24,29.14,71.72,25.88,47.34Z" transform="translate(0 0)"/>
        </g>
    </symbol>
</svg>